<svg xmlns="http://www.w3.org/2000/svg" xml:space="preserve" width="400" height="400" viewBox="-10.247 -21.746 400 400"><style>@keyframes bouncy{0%{transform:translateY(0)}to{transform:translateY(-3px)}}.svg-label{animation:bouncy 1s linear infinite;animation-direction:alternate}</style><ellipse cx="193.421" cy="259.789" fill="none" stroke="#446B5A" stroke-linecap="round" stroke-linejoin="round" stroke-miterlimit="10" stroke-width="4" rx="43.187" ry="14.396"/><path fill="none" stroke="#446B5A" stroke-linecap="round" stroke-linejoin="round" stroke-miterlimit="10" stroke-width="4" d="M236.608 274.185c0 7.95-19.335 14.396-43.188 14.396-23.852 0-43.187-6.445-43.187-14.396"/><path fill="none" stroke="#446B5A" stroke-linecap="round" stroke-linejoin="round" stroke-miterlimit="10" stroke-width="4" d="M150.233 259.789v43.187c0 7.951 19.335 14.396 43.187 14.396 23.853 0 43.188-6.445 43.188-14.396v-43.187"/><path fill="none" stroke="#446B5A" stroke-linecap="round" stroke-linejoin="round" stroke-miterlimit="10" stroke-width="4" d="M236.608 288.58c0 7.951-19.335 14.396-43.188 14.396-23.852 0-43.187-6.444-43.187-14.396M60 189.866l-16 8 32 16 32-16-16-8-16 8zM76 181.866l-16-8-16 8 16 8M92 189.866l16-8-16-8-16 8M92 173.866l16-8-32-16-32 16 16 8M340.203 176.534l-10.596-3.533 4.994-9.99-7.543-7.543-9.99 4.996-3.531-10.597h-10.668l-3.531 10.597-9.99-4.996-7.543 7.543 4.996 9.99-10.598 3.533V187.2l10.598 3.531-4.996 9.988 7.543 7.543 9.99-4.996 3.531 10.598h10.668l3.531-10.598 9.99 4.996 7.543-7.543-4.994-9.988 10.596-3.531zm-32 15.997c-5.891 0-10.666-4.773-10.666-10.664s4.775-10.667 10.666-10.667 10.666 4.776 10.666 10.667-4.776 10.664-10.666 10.664"/><g id="arrow-data-controller"><path fill="none" stroke="#446B5A" stroke-linecap="round" stroke-linejoin="round" stroke-width="4" d="M308.232 234.741c-2.213 29.086-26.509 52.265-56.945 54.288"/><path fill="#446B5A" d="m289.907 245.742 2.553 3.083 15.175-12.597 11.457 16.057 3.257-2.329-13.957-19.553zM262.506 270.864l3.053 2.589-12.773 15.027 15.922 11.644-2.367 3.23-19.387-14.185z"/></g><g id="icon-user"><circle cx="193.421" cy="26.647" r="24.647" fill="none" stroke="#446B5A" stroke-linecap="round" stroke-linejoin="round" stroke-miterlimit="10" stroke-width="4"/><path fill="none" stroke="#446B5A" stroke-linecap="round" stroke-linejoin="round" stroke-miterlimit="10" stroke-width="4" d="M218.068 51.293s16.431 0 16.431 49.294h-82.155c0-49.294 16.431-49.294 16.431-49.294"/></g><g id="arrow-views-user"><path fill="none" stroke="#446B5A" stroke-linecap="round" stroke-linejoin="round" stroke-width="4" d="M76.093 133.199c1.872-43.986 32.038-79.25 69.82-81.763"/><path fill="#446B5A" d="m93.608 121.196-2.721-2.936-14.451 13.422-12.332-15.394-3.123 2.505 15.023 18.747zM134.609 69.542l-3.043-2.602 12.832-14.977-15.876-11.706 2.379-3.219 19.333 14.259z"/></g><g id="arrow-views-controller"><path fill="none" stroke="#446B5A" stroke-linecap="round" stroke-linejoin="round" stroke-width="4" d="M259.897 167.339c-10.68-7.161-32.153-17.473-66.565-17.473h.178c-35.206 0-54.777 8.258-66.714 17.27"/><path fill="#446B5A" d="m256.967 146.724-3.857 1.072 5.303 18.996-19.335 3.902.796 3.924 23.546-4.757zM128.696 146.428l3.907.876-4.336 19.239 19.507 2.92-.596 3.958-23.758-3.56z"/></g><g id="label-data" class="svg-label"><path d="M45.105 256.407h1.95q1.28 0 1.91.881.63.88.63 2.609c0 1.729-.21 2.023-.63 2.61s-1.057.88-1.91.88h-1.95zm1.91 6.25q.84 0 1.265-.579c.425-.579.425-.934.425-1.641v-1.08q0-1.06-.425-1.64c-.425-.58-.705-.58-1.265-.58h-1.07v5.52zM54.965 263.388l-.59-1.99h-2.45l-.59 1.99h-.87l2.14-6.98h1.11l2.14 6.98zm-1.77-6.09h-.09l-.98 3.37h2.05zM59.575 257.138v6.25h-.84v-6.25h-2.33v-.73h5.5v.73zM66.965 263.388l-.59-1.99h-2.45l-.59 1.99h-.87l2.14-6.98h1.11l2.14 6.98zm-1.77-6.09h-.09l-.98 3.37h2.05z"/><path fill="none" stroke="#000" stroke-miterlimit="10" d="M92.466 266.986H42.694M140.183 286.78l-47.717-19.794"/></g><g id="label-views" class="svg-label"><path d="m2.43 127.493-2.07-6.98h.89l.99 3.49.75 2.64h.05l.75-2.64.99-3.49h.86l-2.07 6.98zM6.84 127.493v-.67h1.74v-5.64H6.84v-.67h4.32v.67H9.42v5.64h1.74v.67zM12.9 127.493v-6.98h4.3v.73h-3.46v2.35h3.34v.73h-3.34v2.44h3.46v.73zM18.899 127.493l-.55-6.98h.75l.29 4 .15 2.11h.08l.92-4.29h.94l.92 4.29h.08l.15-2.11.29-4h.73l-.55 6.98h-1.21l-.85-4.17h-.08l-.85 4.17zM26.979 127.613q-.94 0-1.54-.35t-.99-.891l.61-.5q.41.51.865.76.456.25 1.085.25.76 0 1.16-.348.4-.347.4-.974 0-.507-.29-.79c-.29-.283-.53-.323-1.01-.403l-.78-.13q-.51-.09-.855-.271a1.75 1.75 0 0 1-.555-.436q-.21-.255-.3-.561a2.2 2.2 0 0 1-.09-.636q0-.962.63-1.452t1.7-.491q.84 0 1.415.284.574.284.925.796l-.59.51a2.4 2.4 0 0 0-.7-.62q-.41-.24-1.06-.24-.71 0-1.09.298c-.38.298-.38.497-.38.894q0 .468.285.761t1.025.422l.75.13q.51.09.86.271c.35.181.421.264.565.43q.215.25.305.561.09.31.09.651 0 .971-.635 1.522-.635.554-1.805.553"/><path fill="none" stroke="#000" stroke-miterlimit="10" d="M0 131.177h29.681M29.681 131.177l17.808 22.831"/></g><g id="label-controller" class="svg-label"><path d="M278.542 116.916h2.371q.9 0 1.41.49t.51 1.31q0 .63-.305.99-.306.36-.785.51v.03q.59.14.969.525.381.385.381 1.115a2.2 2.2 0 0 1-.141.79 1.866 1.866 0 0 1-.995 1.065q-.345.155-.746.155h-2.67v-6.98zm2.282 3.03q.529 0 .83-.235.299-.235.299-.715v-.39q0-.48-.299-.72-.302-.24-.83-.24h-1.44v2.3zm.138 3.22q.581 0 .91-.26t.33-.8v-.41q0-.53-.33-.795-.329-.265-.91-.265h-1.579v2.53zM285.303 116.916v4.19q0 .51.03.91t.16.685.404.435q.275.15.766.15.489 0 .765-.15a.92.92 0 0 0 .405-.435q.13-.285.16-.685t.029-.91v-4.19h.84v3.99q0 .78-.074 1.36-.076.58-.311.97t-.67.585-1.145.195q-.711 0-1.146-.195a1.46 1.46 0 0 1-.67-.585q-.236-.39-.31-.97-.076-.58-.076-1.36v-3.99zM292.643 124.016q-.94 0-1.54-.35t-.99-.891l.61-.5q.41.51.864.76.457.25 1.086.25.76 0 1.16-.348.399-.347.399-.974 0-.507-.29-.79c-.29-.283-.529-.323-1.01-.403l-.779-.13a3 3 0 0 1-.855-.271 1.75 1.75 0 0 1-.555-.436 1.6 1.6 0 0 1-.301-.561 2.2 2.2 0 0 1-.09-.636q0-.962.63-1.452.631-.49 1.7-.491.84 0 1.415.284t.925.796l-.59.51a2.4 2.4 0 0 0-.7-.62q-.41-.24-1.06-.24-.71 0-1.09.298-.381.299-.381.894 0 .467.285.761.284.293 1.025.422l.75.13q.51.09.859.271.35.18.565.43t.306.561q.09.31.09.651 0 .971-.635 1.522-.632.554-1.803.553M296.502 123.896v-.67h1.74v-5.64h-1.74v-.67h4.32v.67h-1.74v5.64h1.74v.67zM303.292 118.016h-.07v5.88h-.76v-6.98h1.19l2.38 5.88h.07v-5.88h.76v6.98h-1.19zM308.562 123.896v-6.98h4.301v.73h-3.46v2.35h3.34v.73h-3.34v2.44h3.46v.73zM316.642 124.016q-.94 0-1.539-.35-.6-.35-.99-.891l.609-.5q.41.51.865.76.456.25 1.085.25.76 0 1.16-.348.4-.347.399-.974 0-.507-.289-.79c-.289-.283-.53-.323-1.01-.403l-.78-.13a3 3 0 0 1-.855-.271 1.8 1.8 0 0 1-.555-.436q-.21-.255-.3-.561a2.2 2.2 0 0 1-.09-.636q0-.962.629-1.452.63-.49 1.701-.491.84 0 1.414.284.575.284.926.796l-.59.51a2.4 2.4 0 0 0-.701-.62q-.41-.24-1.06-.24-.71 0-1.09.298c-.38.298-.38.497-.38.894q0 .467.285.761.284.293 1.025.422l.75.13q.51.09.859.271c.349.181.422.264.564.43q.217.25.306.561.09.31.09.651 0 .971-.635 1.522-.632.554-1.803.553M322.642 124.016q-.94 0-1.539-.35-.6-.35-.99-.891l.609-.5q.41.51.865.76.456.25 1.085.25.76 0 1.16-.348.4-.347.399-.974 0-.507-.289-.79c-.289-.283-.53-.323-1.01-.403l-.78-.13a3 3 0 0 1-.855-.271 1.8 1.8 0 0 1-.555-.436q-.21-.255-.3-.561a2.2 2.2 0 0 1-.09-.636q0-.962.629-1.452.63-.49 1.701-.491.84 0 1.414.284.575.284.926.796l-.59.51a2.4 2.4 0 0 0-.701-.62q-.41-.24-1.06-.24-.71 0-1.09.298c-.38.298-.38.497-.38.894q0 .467.285.761.284.293 1.025.422l.75.13q.51.09.859.271c.349.181.422.264.564.43q.217.25.306.561.09.31.09.651 0 .971-.635 1.522-.632.554-1.803.553M332.863 123.896v-6.98h.84v6.25h3.31v.73zM340.662 124.016q-.64 0-1.1-.245c-.46-.245-.561-.398-.76-.705a3.3 3.3 0 0 1-.439-1.13 7.5 7.5 0 0 1-.141-1.53q0-.85.141-1.525t.439-1.135.76-.705q.46-.245 1.1-.245t1.101.245.76.705c.3.46.347.685.44 1.135q.14.675.14 1.525 0 .86-.14 1.53t-.44 1.13c-.3.46-.453.542-.76.705s-.674.245-1.101.245m0-.73q.42 0 .711-.165c.291-.165.354-.265.479-.465q.19-.3.274-.725c.084-.425.086-.602.086-.955v-1.14q0-.52-.086-.95c-.086-.43-.148-.53-.274-.73q-.19-.3-.479-.465c-.289-.165-.431-.165-.711-.165q-.419 0-.709.165c-.29.165-.354.265-.48.465q-.19.3-.275.73c-.085.43-.084.603-.084.95v1.14q0 .53.084.955c.084.425.148.525.275.725q.19.3.48.465c.29.165.429.165.709.165M348.102 122.966h-.05a3 3 0 0 1-.21.39q-.12.19-.306.335a1.2 1.2 0 0 1-.444.235q-.26.09-.62.09-1.14 0-1.695-.92-.554-.92-.555-2.64 0-1.8.609-2.73.61-.93 1.881-.93.489 0 .85.13.36.13.615.35t.425.495.28.555l-.721.33a3.5 3.5 0 0 0-.205-.435 1.5 1.5 0 0 0-.279-.36 1.2 1.2 0 0 0-.395-.245 1.5 1.5 0 0 0-.541-.09q-.84 0-1.234.63-.396.63-.395 1.68v1.08q-.001.53.079.965c.08.435.142.542.265.755q.185.32.48.495t.725.175q.68 0 1.061-.41c.381-.41.38-.626.38-1.06v-.72h-1.47v-.67h2.25v3.45h-.78zM350.501 123.896v-.67h1.74v-5.64h-1.74v-.67h4.32v.67h-1.74v5.64h1.74v.67zM358.892 124.016q-1.28 0-1.904-.93-.626-.93-.625-2.68-.001-1.75.625-2.68.624-.93 1.904-.93.48 0 .83.13t.6.35.42.495.301.555l-.721.33a3 3 0 0 0-.209-.435 1.6 1.6 0 0 0-.285-.36 1.2 1.2 0 0 0-.391-.245 1.5 1.5 0 0 0-.545-.09q-.83 0-1.234.63-.406.63-.406 1.68v1.14q0 1.05.406 1.68t1.234.63q.32 0 .545-.09t.391-.245q.164-.156.285-.36a3 3 0 0 0 .209-.435l.721.33q-.131.29-.301.56a2.2 2.2 0 0 1-.42.49 1.9 1.9 0 0 1-.6.35q-.35.13-.83.13"/><path fill="none" stroke="#000" stroke-miterlimit="10" d="M276.203 127.493h104.619M380.822 127.493l-45.662 26.515"/></g><g class="svg-label"><path d="m265.763 26.647-.59-1.99h-2.45l-.59 1.99h-.87l2.141-6.98h1.109l2.141 6.98zm-1.769-6.09h-.09l-.98 3.37h2.05zM273.854 26.647v-6.98h2.54q.97 0 1.479.53t.51 1.48q0 .95-.51 1.48t-1.479.53h-1.7v2.96zm.84-3.69h1.68q.53 0 .825-.265.295-.264.295-.755v-.52q0-.49-.295-.755-.296-.265-.825-.265h-1.68zM279.854 26.647v-6.98h4.3v.73h-3.46v2.35h3.34v.73h-3.34v2.44h3.46v.73zM286.694 26.647h-.84v-6.98h2.54q.97 0 1.479.53t.51 1.48q0 .85-.439 1.36-.441.51-1.28.59l1.78 3.02h-.94l-1.7-2.98h-1.109v2.98zm1.68-3.69q.53 0 .825-.265.295-.264.295-.755v-.52q0-.49-.295-.755-.296-.265-.825-.265h-1.68v2.56zM293.934 26.767q-.941 0-1.54-.35t-.99-.891l.609-.5q.41.51.865.76c.455.25.665.25 1.085.25q.76 0 1.16-.348t.4-.974q0-.507-.29-.79c-.29-.283-.53-.323-1.011-.403l-.779-.13q-.51-.09-.855-.271a1.8 1.8 0 0 1-.555-.436q-.21-.255-.3-.561a2.2 2.2 0 0 1-.09-.636q0-.962.63-1.452c.63-.49.986-.491 1.699-.491q.841 0 1.415.284.576.284.926.796l-.591.51a2.4 2.4 0 0 0-.699-.62q-.41-.24-1.061-.24-.71 0-1.09.298c-.38.298-.38.497-.38.894q0 .468.285.761.284.293 1.024.422l.75.13q.511.09.86.271c.349.181.422.264.565.43q.214.25.305.561.09.31.09.651 0 .971-.635 1.522-.633.553-1.802.553M299.953 26.767q-.64 0-1.1-.245c-.46-.245-.561-.398-.761-.705a3.3 3.3 0 0 1-.439-1.13 7.5 7.5 0 0 1-.141-1.53q0-.85.141-1.525t.439-1.135q.3-.46.761-.705.46-.245 1.1-.245c.64 0 .793.082 1.1.245q.46.245.761.705.3.46.439 1.135.141.675.141 1.525 0 .86-.141 1.53t-.439 1.13q-.3.46-.761.705c-.461.245-.674.245-1.1.245m0-.73q.42 0 .71-.165c.29-.165.354-.265.48-.465q.19-.3.274-.725c.084-.425.085-.602.085-.955v-1.14q0-.52-.085-.95c-.085-.43-.148-.53-.274-.73q-.19-.3-.48-.465c-.29-.165-.43-.165-.71-.165s-.517.055-.71.165-.354.265-.48.465q-.19.3-.274.73a4 4 0 0 0-.085.95v1.14q0 .53.085.955c.085.425.148.525.274.725q.19.3.48.465c.29.165.429.165.71.165M304.583 20.767h-.07v5.88h-.76v-6.98h1.19l2.38 5.88h.07v-5.88h.76v6.98h-1.19z"/><path fill="none" stroke="#000" stroke-miterlimit="10" d="M246.954 29.35h61.442M246.954 29.35l-18.926 10.046"/></g></svg>